<svg width="166" height="52" viewBox="0 0 166 52" fill="none" xmlns="http://www.w3.org/2000/svg">
<path d="M158 1H8C4.13401 1 1 4.13401 1 8V44C1 47.866 4.13401 51 8 51H158C161.866 51 165 47.866 165 44V8C165 4.13401 161.866 1 158 1Z" fill="black" stroke="#4C4C4C" stroke-width="2"/>
<path fill-rule="evenodd" clip-rule="evenodd" d="M35.9363 26.3769C35.9713 30.5066 39.5433 31.8702 39.5871 31.8852C39.5658 31.9804 39.028 33.8549 37.6885 35.757C36.5691 37.4324 35.396 39.0702 33.5349 39.1003C31.7264 39.1416 31.1185 38.0334 29.0436 38.0334C26.9499 38.0334 26.3021 39.0702 24.5674 39.1416C22.7939 39.2079 21.4393 37.3535 20.2799 35.6931C17.9636 32.3047 16.1589 26.1428 18.5777 21.9505C19.7496 19.8944 21.8883 18.5696 24.1721 18.5345C25.9469 18.497 27.5941 19.7341 28.6847 19.7341C29.7553 19.7341 31.7914 18.2541 33.8914 18.4757C34.7693 18.5007 37.2708 18.8225 38.8842 21.1766C38.7528 21.2555 35.905 22.9322 35.9363 26.3769ZM32.5193 16.2468C31.5463 17.3963 29.9879 18.2766 28.4708 18.1627C28.2732 16.6112 29.0411 14.9608 29.9016 13.9541C30.8747 12.8109 32.5631 11.9356 33.9139 11.8755C34.0902 13.4895 33.4524 15.0785 32.5193 16.2468Z" fill="#FFFFFE"/>
<path fill-rule="evenodd" clip-rule="evenodd" d="M52.5582 33.0008H57.2508L54.937 26.1803H54.8732L52.5582 33.0008ZM57.8649 34.9405H51.9453L50.5233 39.1428H48.0156L53.6238 23.5933H56.229L61.8359 39.1428H59.2857L57.8649 34.9405Z" fill="#FFFFFE"/>
<path fill-rule="evenodd" clip-rule="evenodd" d="M71.5577 33.4755C71.5577 31.1803 70.372 29.6714 68.5648 29.6714C66.7888 29.6714 65.5944 31.2116 65.5944 33.4755C65.5944 35.7595 66.7888 37.2897 68.5648 37.2897C70.372 37.2897 71.5577 35.7908 71.5577 33.4755ZM73.9466 33.4755C73.9466 36.9979 72.063 39.2618 69.2201 39.2618C67.6067 39.2618 66.326 38.5393 65.6581 37.2784H65.6044V42.8931H63.2793V27.8057H65.5293V29.6915H65.5718C66.2185 28.4756 67.5967 27.688 69.1776 27.688C72.0517 27.688 73.9466 29.9619 73.9466 33.4755Z" fill="#FFFFFE"/>
<path fill-rule="evenodd" clip-rule="evenodd" d="M84.0198 33.4755C84.0198 31.1803 82.8354 29.6714 81.0282 29.6714C79.2522 29.6714 78.0577 31.2116 78.0577 33.4755C78.0577 35.7595 79.2522 37.2897 81.0282 37.2897C82.8354 37.2897 84.0198 35.7908 84.0198 33.4755ZM86.4087 33.4755C86.4087 36.9979 84.5264 39.2618 81.6835 39.2618C80.0701 39.2618 78.7894 38.5393 78.1215 37.2784H78.0677V42.8931H75.7427V27.8057H77.9927V29.6915H78.0352C78.6818 28.4756 80.0589 27.688 81.641 27.688C84.5151 27.688 86.4087 29.9619 86.4087 33.4755Z" fill="#FFFFFE"/>
<path fill-rule="evenodd" clip-rule="evenodd" d="M94.6467 34.8102C94.818 36.3528 96.3151 37.3646 98.3588 37.3646C100.319 37.3646 101.728 36.3528 101.728 34.9617C101.728 33.7546 100.878 33.0321 98.8653 32.5375L96.8517 32.0516C94.0001 31.3617 92.6756 30.0269 92.6756 27.8593C92.6756 25.1772 95.0119 23.334 98.3275 23.334C101.609 23.334 103.859 25.1772 103.934 27.8593H101.588C101.448 26.3079 100.166 25.3713 98.295 25.3713C96.4214 25.3713 95.1407 26.3192 95.1407 27.6978C95.1407 28.7972 95.9587 29.4446 97.9611 29.9405L99.672 30.3599C102.859 31.115 104.183 32.396 104.183 34.6712C104.183 37.58 101.868 39.4019 98.1874 39.4019C94.743 39.4019 92.4167 37.6225 92.2666 34.8102H94.6467Z" fill="#FFFFFE"/>
<path fill-rule="evenodd" clip-rule="evenodd" d="M109.199 25.1235V27.8057H111.352V29.6489H109.199V35.8985C109.199 36.8702 109.63 37.3222 110.577 37.3222C110.813 37.3222 111.191 37.2897 111.341 37.2684V39.1003C111.084 39.1654 110.567 39.208 110.05 39.208C107.758 39.208 106.864 38.3452 106.864 36.1477V29.6489H105.218V27.8057H106.864V25.1235H109.199Z" fill="#FFFFFE"/>
<path fill-rule="evenodd" clip-rule="evenodd" d="M120.973 33.4753C120.973 31.0286 119.854 29.5836 117.97 29.5836C116.087 29.5836 114.968 31.0386 114.968 33.4753C114.968 35.9321 116.087 37.3646 117.97 37.3646C119.854 37.3646 120.973 35.9321 120.973 33.4753ZM112.6 33.4753C112.6 29.9079 114.698 27.6665 117.97 27.6665C121.253 27.6665 123.342 29.9079 123.342 33.4753C123.342 37.0515 121.264 39.2829 117.97 39.2829C114.677 39.2829 112.6 37.0515 112.6 33.4753Z" fill="#FFFFFE"/>
<path fill-rule="evenodd" clip-rule="evenodd" d="M125.258 27.8057H127.475V29.7353H127.529C127.884 28.4531 128.917 27.688 130.252 27.688C130.586 27.688 130.865 27.7318 131.049 27.7744V29.9507C130.865 29.8755 130.456 29.8104 130.004 29.8104C128.508 29.8104 127.583 30.8247 127.583 32.4187V39.1429H125.258V27.8057Z" fill="#FFFFFE"/>
<path fill-rule="evenodd" clip-rule="evenodd" d="M133.908 32.4298H139.569C139.515 30.6943 138.407 29.5523 136.792 29.5523C135.189 29.5523 134.027 30.7168 133.908 32.4298ZM141.765 35.8131C141.452 37.8717 139.451 39.2829 136.89 39.2829C133.595 39.2829 131.55 37.0741 131.55 33.5292C131.55 29.973 133.606 27.6665 136.792 27.6665C139.925 27.6665 141.895 29.8215 141.895 33.2587V34.0563H133.897V34.1966C133.897 36.1362 135.114 37.4072 136.943 37.4072C138.234 37.4072 139.247 36.7936 139.559 35.8131H141.765Z" fill="#FFFFFE"/>
<path fill-rule="evenodd" clip-rule="evenodd" d="M50.7307 18.304H52.1377C53.6986 18.304 54.5979 17.3311 54.5979 15.6169C54.5979 13.929 53.6836 12.9447 52.1377 12.9447H50.7307V18.304ZM52.2666 11.8892C54.4803 11.8892 55.7785 13.2503 55.7785 15.6019C55.7785 17.9885 54.4903 19.3609 52.2666 19.3609H49.5713V11.8892H52.2666Z" fill="#FFFFFE"/>
<path fill-rule="evenodd" clip-rule="evenodd" d="M61.257 16.5384C61.257 15.3162 60.7079 14.6025 59.7461 14.6025C58.7793 14.6025 58.2365 15.3162 58.2365 16.5384C58.2365 17.7705 58.7793 18.4805 59.7461 18.4805C60.7079 18.4805 61.257 17.7655 61.257 16.5384ZM57.0884 16.5384C57.0884 14.7215 58.1014 13.6133 59.7461 13.6133C61.3858 13.6133 62.4001 14.7215 62.4001 16.5384C62.4001 18.3665 61.3908 19.4697 59.7461 19.4697C58.0964 19.4697 57.0884 18.3665 57.0884 16.5384Z" fill="#FFFFFE"/>
<path fill-rule="evenodd" clip-rule="evenodd" d="M69.4602 19.3607H68.307L67.1439 15.2072H67.0551L65.8969 19.3607H64.755L63.2017 13.7222H64.3298L65.3379 18.0246H65.4217L66.5798 13.7222H67.6454L68.8036 18.0246H68.8911L69.8954 13.7222H71.0073L69.4602 19.3607Z" fill="#FFFFFE"/>
<path fill-rule="evenodd" clip-rule="evenodd" d="M72.313 13.7222H73.3823V14.6175H73.4649C73.7388 13.9914 74.2979 13.6133 75.1458 13.6133C76.4028 13.6133 77.0957 14.3683 77.0957 15.7107V19.3608H75.9838V15.9899C75.9838 15.0833 75.5911 14.6326 74.7681 14.6326C73.9464 14.6326 73.4236 15.1823 73.4236 16.0613V19.3608H72.313V13.7222Z" fill="#FFFFFE"/>
<path fill-rule="evenodd" clip-rule="evenodd" d="M78.8667 19.3609H79.9786V11.521H78.8667V19.3609Z" fill="#FFFFFE"/>
<path fill-rule="evenodd" clip-rule="evenodd" d="M85.692 16.5384C85.692 15.3162 85.143 14.6025 84.1812 14.6025C83.2144 14.6025 82.6716 15.3162 82.6716 16.5384C82.6716 17.7705 83.2144 18.4805 84.1812 18.4805C85.143 18.4805 85.692 17.7655 85.692 16.5384ZM81.5234 16.5384C81.5234 14.7215 82.5365 13.6133 84.1812 13.6133C85.8209 13.6133 86.8352 14.7215 86.8352 16.5384C86.8352 18.3665 85.8259 19.4697 84.1812 19.4697C82.5315 19.4697 81.5234 18.3665 81.5234 16.5384Z" fill="#FFFFFE"/>
<path fill-rule="evenodd" clip-rule="evenodd" d="M91.6254 17.2847V16.8126L90.2509 16.9002C89.4754 16.9528 89.124 17.217 89.124 17.7142C89.124 18.2213 89.563 18.5168 90.1671 18.5168C91.005 18.5168 91.6254 17.9834 91.6254 17.2847ZM88.0059 17.7655C88.0059 16.7512 88.76 16.1652 90.1008 16.0826L91.6254 15.9949V15.5078C91.6254 14.913 91.2327 14.5762 90.4735 14.5762C89.8532 14.5762 89.4229 14.8041 89.2991 15.2023H88.2235C88.3373 14.2344 89.2466 13.6133 90.5248 13.6133C91.9368 13.6133 92.7323 14.317 92.7323 15.5078V19.3608H91.6629V18.5681H91.5741C91.2389 19.1329 90.6236 19.4534 89.8832 19.4534C88.7976 19.4534 88.0059 18.796 88.0059 17.7655Z" fill="#FFFFFE"/>
<path fill-rule="evenodd" clip-rule="evenodd" d="M95.341 16.5385C95.341 17.7343 95.9038 18.4543 96.8456 18.4543C97.7824 18.4543 98.3615 17.7243 98.3615 16.5435C98.3615 15.3689 97.7761 14.6276 96.8456 14.6276C95.9101 14.6276 95.341 15.3526 95.341 16.5385ZM94.1929 16.5385C94.1929 14.7566 95.1084 13.6284 96.5304 13.6284C97.3021 13.6284 97.9525 13.9965 98.2577 14.6176H98.3415V11.521H99.4521V19.3609H98.3877V18.4693H98.2989C97.9637 19.0866 97.3059 19.4535 96.5304 19.4535C95.0984 19.4535 94.1929 18.3253 94.1929 16.5385Z" fill="#FFFFFE"/>
<path fill-rule="evenodd" clip-rule="evenodd" d="M108.219 16.5384C108.219 15.3162 107.67 14.6025 106.709 14.6025C105.742 14.6025 105.199 15.3162 105.199 16.5384C105.199 17.7705 105.742 18.4805 106.709 18.4805C107.67 18.4805 108.219 17.7655 108.219 16.5384ZM104.051 16.5384C104.051 14.7215 105.065 13.6133 106.709 13.6133C108.348 13.6133 109.363 14.7215 109.363 16.5384C109.363 18.3665 108.353 19.4697 106.709 19.4697C105.06 19.4697 104.051 18.3665 104.051 16.5384Z" fill="#FFFFFE"/>
<path fill-rule="evenodd" clip-rule="evenodd" d="M110.855 13.7222H111.924V14.6175H112.007C112.281 13.9914 112.84 13.6133 113.688 13.6133C114.945 13.6133 115.638 14.3683 115.638 15.7107V19.3608H114.526V15.9899C114.526 15.0833 114.133 14.6326 113.31 14.6326C112.488 14.6326 111.966 15.1823 111.966 16.0613V19.3608H110.855V13.7222Z" fill="#FFFFFE"/>
<path fill-rule="evenodd" clip-rule="evenodd" d="M121.917 12.3188V13.7476H123.138V14.6855H121.917V17.5842C121.917 18.1753 122.161 18.4345 122.714 18.4345C122.885 18.4345 122.983 18.4232 123.138 18.4082V19.3348C122.957 19.3661 122.749 19.3924 122.533 19.3924C121.297 19.3924 120.805 18.9566 120.805 17.8697V14.6855H119.911V13.7476H120.805V12.3188H121.917Z" fill="#FFFFFE"/>
<path fill-rule="evenodd" clip-rule="evenodd" d="M124.656 11.521H125.758V14.6276H125.846C126.118 13.9965 126.714 13.6184 127.563 13.6184C128.762 13.6184 129.503 14.3797 129.503 15.7208V19.3609H128.39V15.995C128.39 15.0947 127.971 14.6377 127.185 14.6377C126.275 14.6377 125.767 15.2137 125.767 16.0676V19.3609H124.656V11.521Z" fill="#FFFFFE"/>
<path fill-rule="evenodd" clip-rule="evenodd" d="M132.073 16.0212H134.918C134.892 15.1359 134.354 14.5599 133.531 14.5599C132.709 14.5599 132.135 15.1409 132.073 16.0212ZM135.983 17.8381C135.73 18.8486 134.829 19.4697 133.542 19.4697C131.929 19.4697 130.941 18.3615 130.941 16.5584C130.941 14.7565 131.95 13.6133 133.537 13.6133C135.105 13.6133 136.05 14.6851 136.05 16.4557V16.8439H132.073V16.9065C132.11 17.8945 132.684 18.5218 133.572 18.5218C134.247 18.5218 134.707 18.2776 134.913 17.8381H135.983Z" fill="#FFFFFE"/>
</svg>
