<svg width="22" height="22" viewBox="0 0 22 22" fill="none" xmlns="http://www.w3.org/2000/svg">
<g clip-path="url(#clip0_669_1847)">
<path d="M22.2052 10.745C21.3231 8.46324 19.7917 6.48996 17.8003 5.06906C15.8089 3.64817 13.4448 2.84193 11.0002 2.75C8.55556 2.84193 6.19146 3.64817 4.20007 5.06906C2.20868 6.48996 0.67729 8.46324 -0.204831 10.745C-0.264405 10.9098 -0.264405 11.0902 -0.204831 11.255C0.67729 13.5368 2.20868 15.51 4.20007 16.9309C6.19146 18.3518 8.55556 19.1581 11.0002 19.25C13.4448 19.1581 15.8089 18.3518 17.8003 16.9309C19.7917 15.51 21.3231 13.5368 22.2052 11.255C22.2647 11.0902 22.2647 10.9098 22.2052 10.745ZM11.0002 17.75C7.02517 17.75 2.82517 14.8025 1.30267 11C2.82517 7.1975 7.02517 4.25 11.0002 4.25C14.9752 4.25 19.1752 7.1975 20.6977 11C19.1752 14.8025 14.9752 17.75 11.0002 17.75Z" fill="white"/>
<path d="M11 6.5C10.11 6.5 9.23996 6.76392 8.49994 7.25839C7.75991 7.75285 7.18314 8.45566 6.84254 9.27792C6.50195 10.1002 6.41283 11.005 6.58647 11.8779C6.7601 12.7508 7.18869 13.5526 7.81802 14.182C8.44736 14.8113 9.24918 15.2399 10.1221 15.4135C10.995 15.5872 11.8998 15.4981 12.7221 15.1575C13.5443 14.8169 14.2471 14.2401 14.7416 13.5001C15.2361 12.76 15.5 11.89 15.5 11C15.5 9.80653 15.0259 8.66193 14.182 7.81802C13.3381 6.97411 12.1935 6.5 11 6.5ZM11 14C10.4067 14 9.82664 13.8241 9.33329 13.4944C8.83994 13.1648 8.45543 12.6962 8.22836 12.148C8.0013 11.5999 7.94189 10.9967 8.05765 10.4147C8.1734 9.83279 8.45912 9.29824 8.87868 8.87868C9.29824 8.45912 9.83279 8.1734 10.4147 8.05764C10.9967 7.94189 11.5999 8.0013 12.1481 8.22836C12.6962 8.45542 13.1648 8.83994 13.4944 9.33329C13.8241 9.82664 14 10.4067 14 11C14 11.7956 13.6839 12.5587 13.1213 13.1213C12.5587 13.6839 11.7957 14 11 14Z" fill="white"/>
</g>
<defs>
<clipPath id="clip0_669_1847">
<rect width="22" height="22" rx="11" fill="white"/>
</clipPath>
</defs>
</svg>
