<?xml version="1.0" encoding="iso-8859-1"?>
<svg width="32" height="32" viewBox="0 0 32 32" fill="none" xmlns="http://www.w3.org/2000/svg">
    <g clip-path="url(#clip0)">
        <path d="M27.9256 3.11883C27.1319 2.38758 23.9194 0.0563346 16.7569 0.0250846C16.7569 0.0250846 8.31315 -0.481165 4.20065 3.29383C1.91315 5.58133 1.1069 8.93758 1.0194 13.0938C0.931899 17.2501 0.825649 25.0376 8.3319 27.1501H8.33815L8.3319 30.3751C8.3319 30.3751 8.2819 31.6813 9.1444 31.9438C10.1819 32.2688 10.7944 31.2751 11.7881 30.2063C12.3319 29.6188 13.0819 28.7563 13.6506 28.1001C18.7881 28.5313 22.7319 27.5438 23.1819 27.4001C24.2194 27.0626 30.0881 26.3126 31.0381 18.5251C32.0256 10.4876 30.5632 5.41258 27.9256 3.11883ZM28.7944 17.9376C27.9881 24.4376 23.2319 24.8501 22.3569 25.1313C21.9819 25.2501 18.5131 26.1126 14.1569 25.8313C14.1569 25.8313 10.9069 29.7501 9.8944 30.7688C9.56315 31.1001 9.20065 31.0688 9.2069 30.4126C9.2069 29.9813 9.2319 25.0563 9.2319 25.0563C9.22565 25.0563 9.22565 25.0563 9.2319 25.0563C2.8694 23.2938 3.2444 16.6626 3.31315 13.1938C3.3819 9.72509 4.03815 6.88133 5.97565 4.96883C9.4569 1.81258 16.6256 2.28133 16.6256 2.28133C22.6819 2.30633 25.5819 4.13133 26.2569 4.74383C28.4881 6.65633 29.6256 11.2313 28.7944 17.9376ZM20.1069 12.8876C20.1319 13.4251 19.3256 13.4626 19.3006 12.9251C19.2319 11.5501 18.5882 10.8813 17.2631 10.8063C16.7256 10.7751 16.7757 9.96883 17.3069 10.0001C19.0506 10.0938 20.0194 11.0938 20.1069 12.8876ZM21.3757 13.5938C21.4382 10.9438 19.7819 8.86883 16.6381 8.63758C16.1069 8.60008 16.1631 7.79383 16.6944 7.83133C20.3194 8.09383 22.2507 10.5876 22.1819 13.6126C22.1756 14.1501 21.3631 14.1251 21.3757 13.5938ZM24.3132 14.4313C24.3194 14.9688 23.5069 14.9751 23.5069 14.4376C23.4694 9.34383 20.0756 6.56883 15.9569 6.53758C15.4256 6.53133 15.4256 5.73133 15.9569 5.73133C20.5631 5.76258 24.2694 8.94383 24.3132 14.4313ZM23.6069 20.5626V20.5751C22.9319 21.7626 21.6694 23.0751 20.3694 22.6563L20.3569 22.6376C19.0381 22.2688 15.9319 20.6688 13.9694 19.1063C12.9569 18.3063 12.0319 17.3626 11.3194 16.4563C10.6756 15.6501 10.0256 14.6938 9.3944 13.5438C8.06315 11.1376 7.7694 10.0626 7.7694 10.0626C7.35065 8.76258 8.6569 7.50008 9.85065 6.82508H9.86315C10.4381 6.52508 10.9881 6.62508 11.3569 7.06883C11.3569 7.06883 12.1319 7.99383 12.4631 8.45008C12.7756 8.87508 13.1944 9.55633 13.4131 9.93758C13.7944 10.6188 13.5569 11.3126 13.1819 11.6001L12.4319 12.2001C12.0506 12.5063 12.1006 13.0751 12.1006 13.0751C12.1006 13.0751 13.2132 17.2813 17.3694 18.3438C17.3694 18.3438 17.9382 18.3938 18.2444 18.0126L18.8444 17.2626C19.1319 16.8876 19.8256 16.6501 20.5069 17.0313C21.4256 17.5501 22.5944 18.3563 23.3694 19.0876C23.8069 19.4438 23.9069 19.9876 23.6069 20.5626Z" fill="#8A6CAA" />
    </g>
    <defs>
        <clipPath id="clip0">
            <rect width="32" height="32" fill="white" />
        </clipPath>
    </defs>
</svg>