<svg width="166" height="52" viewBox="0 0 166 52" fill="none" xmlns="http://www.w3.org/2000/svg">
<g clip-path="url(#clip0_4400_20533)">
<mask id="mask0_4400_20533" style="mask-type:alpha" maskUnits="userSpaceOnUse" x="0" y="0" width="166" height="52">
<path d="M166 0H0V52H166V0Z" fill="white"/>
</mask>
<g mask="url(#mask0_4400_20533)">
<path d="M159.107 52H6.34578C2.98504 52 0.235352 49.075 0.235352 45.5V6.5C0.235352 2.925 2.98504 0 6.34578 0H159.107C162.467 0 165.217 2.925 165.217 6.5V45.5C165.217 49.075 162.467 52 159.107 52Z" fill="#100F0D"/>
<path fill-rule="evenodd" clip-rule="evenodd" d="M160 2H6C3.79086 2 2 3.79086 2 6V46C2 48.2091 3.79086 50 6 50H160C162.209 50 164 48.2091 164 46V6C164 3.79086 162.209 2 160 2ZM6 0C2.68629 0 0 2.68629 0 6V46C0 49.3137 2.68629 52 6 52H160C163.314 52 166 49.3137 166 46V6C166 2.68629 163.314 0 160 0H6Z" fill="#4C4C4C"/>
<path d="M58.123 12.7339H54.5752V13.6683H57.2332C57.1625 14.43 56.8761 15.0292 56.3949 15.4639C55.9137 15.8987 55.3007 16.116 54.5752 16.116C53.7769 16.116 53.101 15.8235 52.5491 15.2364C52.0069 14.6372 51.7319 13.8977 51.7319 13.0062C51.7319 12.1124 52.0069 11.3729 52.5491 10.7758C53.101 10.1867 53.7769 9.89417 54.5752 9.89417C54.9837 9.89417 55.3714 9.96931 55.7304 10.1339C56.0875 10.2964 56.3738 10.5239 56.5992 10.8185L57.2733 10.1014C56.9677 9.73167 56.5782 9.44736 56.0988 9.24014C55.6178 9.035 55.1155 8.9375 54.5752 8.9375C53.5115 8.9375 52.6102 9.3275 51.8751 10.1115C51.1381 10.8956 50.7695 11.8625 50.7695 13.0062C50.7695 14.1477 51.1381 15.1165 51.8751 15.8987C52.6102 16.6827 53.5115 17.0747 54.5752 17.0747C55.6884 17.0747 56.5782 16.6927 57.2638 15.921C57.8671 15.279 58.1746 14.4097 58.1746 13.321C58.1746 13.1362 58.1536 12.939 58.123 12.7339ZM59.5365 9.11014V16.9H63.81V15.9433H60.4761V13.4733H63.4835V12.5369H60.4761V10.0689H63.81V9.11014H59.5365ZM69.832 10.0689V9.11014H64.8005V10.0689H66.8457V16.9H67.785V10.0689H69.832ZM74.4236 9.11014H73.484V16.9H74.4236V9.11014ZM80.6471 10.0689V9.11014H75.6156V10.0689H77.6606V16.9H78.6001V10.0689H80.6471ZM90.1775 10.1217C89.4518 9.3275 88.562 8.9375 87.4984 8.9375C86.4349 8.9375 85.545 9.3275 84.8194 10.1115C84.0938 10.8835 83.7348 11.8524 83.7348 13.0062C83.7348 14.1577 84.0938 15.1267 84.8194 15.8987C85.545 16.6827 86.4349 17.0747 87.4984 17.0747C88.5525 17.0747 89.4518 16.6827 90.1775 15.8987C90.905 15.1267 91.2621 14.1577 91.2621 13.0062C91.2621 11.8625 90.905 10.8956 90.1775 10.1217ZM85.4935 10.7758C86.0357 10.1867 86.7003 9.89417 87.4984 9.89417C88.2965 9.89417 88.9611 10.1867 89.4939 10.7758C90.0342 11.3527 90.3016 12.1022 90.3016 13.0062C90.3016 13.9079 90.0342 14.6595 89.4939 15.2364C88.9611 15.8235 88.2965 16.116 87.4984 16.116C86.7003 16.116 86.0357 15.8235 85.4935 15.2364C84.9626 14.6474 84.6972 13.9079 84.6972 13.0062C84.6972 12.1022 84.9626 11.3627 85.4935 10.7758ZM93.5344 12.0474L93.4943 10.5463H93.5344L97.2579 16.9H98.2394V9.11014H97.298V13.6683L97.34 15.1694H97.298L93.7387 9.11014H92.5949V16.9H93.5344V12.0474Z" fill="white"/>
<path d="M130.92 38.9996H133.201V22.7475H130.92V38.9996ZM151.46 28.6022L148.846 35.6481H148.768L146.055 28.6022H143.599L147.668 38.4497L145.347 43.9279H147.725L153.995 28.6022H151.46ZM138.527 37.1537C137.781 37.1537 136.739 36.7561 136.739 35.7735C136.739 34.5191 138.037 34.0383 139.156 34.0383C140.158 34.0383 140.631 34.2679 141.24 34.5817C141.063 36.0874 139.844 37.1537 138.527 37.1537ZM138.803 28.2466C137.152 28.2466 135.442 29.0206 134.734 30.735L136.758 31.6338C137.191 30.735 137.996 30.4425 138.842 30.4425C140.021 30.4425 141.221 31.1945 141.24 32.5332V32.7002C140.826 32.4493 139.941 32.0731 138.862 32.0731C136.679 32.0731 134.458 33.3482 134.458 35.7318C134.458 37.9063 136.248 39.3074 138.252 39.3074C139.785 39.3074 140.631 38.5756 141.16 37.7179H141.24V38.9733H143.442V32.7418C143.442 29.8565 141.416 28.2466 138.803 28.2466ZM124.71 30.5806H121.467V25.01H124.71C126.415 25.01 127.383 26.511 127.383 27.7952C127.383 29.0546 126.415 30.5806 124.71 30.5806ZM124.651 22.7475H119.187V38.9996H121.467V32.8425H124.651C127.179 32.8425 129.663 30.8965 129.663 27.7952C129.663 24.6945 127.179 22.7475 124.651 22.7475ZM94.855 37.1567C93.2796 37.1567 91.9611 35.7532 91.9611 33.827C91.9611 31.8786 93.2796 30.4551 94.855 30.4551C96.4103 30.4551 97.6309 31.8786 97.6309 33.827C97.6309 35.7532 96.4103 37.1567 94.855 37.1567ZM97.4734 29.5122H97.3946C96.8829 28.8632 95.898 28.2767 94.6583 28.2767C92.0589 28.2767 89.6769 30.7066 89.6769 33.827C89.6769 36.9262 92.0589 39.3348 94.6583 39.3348C95.898 39.3348 96.8829 38.7482 97.3946 38.0784H97.4734V38.8736C97.4734 40.9897 96.4103 42.1201 94.6974 42.1201C93.3001 42.1201 92.4338 41.0522 92.079 40.1518L90.0908 41.0314C90.6613 42.4969 92.1769 44.2986 94.6974 44.2986C97.3755 44.2986 99.6396 42.6228 99.6396 38.5385V28.6118H97.4734V29.5122ZM101.215 38.9996H103.498V22.7475H101.215V38.9996ZM106.865 33.6382C106.806 31.5017 108.421 30.413 109.582 30.413C110.488 30.413 111.255 30.8949 111.512 31.5856L106.865 33.6382ZM113.953 31.7948C113.52 30.5598 112.2 28.2767 109.503 28.2767C106.825 28.2767 104.601 30.5176 104.601 33.8058C104.601 36.9054 106.806 39.3348 109.759 39.3348C112.141 39.3348 113.52 37.7854 114.091 36.8845L112.319 35.6277C111.728 36.5494 110.921 37.1567 109.759 37.1567C108.598 37.1567 107.77 36.5911 107.239 35.481L114.189 32.4234L113.953 31.7948ZM58.5824 29.9732V32.3188H63.8588C63.7013 33.6382 63.2879 34.6015 62.6578 35.2717C61.8897 36.0882 60.6886 36.9891 58.5824 36.9891C55.3338 36.9891 52.7942 34.2038 52.7942 30.7482C52.7942 27.2924 55.3338 24.5067 58.5824 24.5067C60.3348 24.5067 61.6142 25.2399 62.5594 26.1824L64.1152 24.5275C62.7958 23.1874 61.0437 22.1611 58.5824 22.1611C54.1322 22.1611 50.3916 26.0149 50.3916 30.7482C50.3916 35.481 54.1322 39.3348 58.5824 39.3348C60.9841 39.3348 62.7958 38.4969 64.2131 36.9262C65.6701 35.3764 66.1231 33.1983 66.1231 31.4388C66.1231 30.8949 66.0834 30.3922 66.0047 29.9732H58.5824ZM72.1218 37.1567C70.5464 37.1567 69.1879 35.7744 69.1879 33.8058C69.1879 31.8161 70.5464 30.4551 72.1218 30.4551C73.6966 30.4551 75.0552 31.8161 75.0552 33.8058C75.0552 35.7744 73.6966 37.1567 72.1218 37.1567ZM72.1218 28.2767C69.2466 28.2767 66.904 30.6014 66.904 33.8058C66.904 36.9891 69.2466 39.3348 72.1218 39.3348C74.9961 39.3348 77.3391 36.9891 77.3391 33.8058C77.3391 30.6014 74.9961 28.2767 72.1218 28.2767ZM83.5029 37.1567C81.9286 37.1567 80.5695 35.7744 80.5695 33.8058C80.5695 31.8161 81.9286 30.4551 83.5029 30.4551C85.0783 30.4551 86.4364 31.8161 86.4364 33.8058C86.4364 35.7744 85.0783 37.1567 83.5029 37.1567ZM83.5029 28.2767C80.6287 28.2767 78.2862 30.6014 78.2862 33.8058C78.2862 36.9891 80.6287 39.3348 83.5029 39.3348C86.3782 39.3348 88.7207 36.9891 88.7207 33.8058C88.7207 30.6014 86.3782 28.2767 83.5029 28.2767Z" fill="white"/>
<path d="M25.5539 25.251L12.543 39.9411C12.5435 39.9441 12.5445 39.9466 12.5449 39.9496C12.9439 41.5447 14.3136 42.7193 15.939 42.7193C16.5888 42.7193 17.1989 42.5324 17.7221 42.2044L17.7636 42.1785L32.4091 33.1887L25.5539 25.251Z" fill="#EB3131"/>
<path d="M38.7165 22.75L38.7041 22.7409L32.3812 18.8418L25.2578 25.5847L32.4061 33.1876L38.6956 29.3273C39.7982 28.6941 40.5467 27.4574 40.5467 26.0314C40.5467 24.6157 39.8083 23.3853 38.7165 22.75Z" fill="#F6B60B"/>
<path d="M12.5421 12.0605C12.4639 12.3673 12.4229 12.6887 12.4229 13.0224V38.9803C12.4229 39.3133 12.4635 39.6358 12.5426 39.9415L26.0013 25.6273L12.5421 12.0605Z" fill="#5778C5"/>
<path d="M25.6494 26.0014L32.3838 18.8397L17.755 9.8175C17.2232 9.47872 16.6027 9.2832 15.9386 9.2832C14.3131 9.2832 12.9416 10.4598 12.5425 12.0568C12.542 12.0585 12.542 12.0594 12.542 12.0609L25.6494 26.0014Z" fill="#3BAD49"/>
</g>
</g>
<defs>
<clipPath id="clip0_4400_20533">
<rect width="166" height="52" fill="white"/>
</clipPath>
</defs>
</svg>
