<svg width="60" height="60" viewBox="0 0 60 60" fill="none" xmlns="http://www.w3.org/2000/svg">
<path d="M5.48237 5.48398L5.48398 5.48237C7.6606 3.30077 10.4431 2.16536 14.3851 1.58639C18.361 1.00245 23.3894 1 29.9946 1C36.5996 1 41.6283 1.00243 45.6057 1.58509C49.549 2.16273 52.3347 3.29558 54.5168 5.47229C56.6991 7.6546 57.8346 10.4404 58.4136 14.3837C58.9976 18.361 59 23.3894 59 29.9946C59 36.5997 58.9976 41.6281 58.4136 45.6054C57.8346 49.5487 56.6991 52.3345 54.5168 54.5168C52.3347 56.699 49.5463 57.8346 45.6014 58.4136C41.6227 58.9976 36.5942 59 29.9946 59C23.3949 59 18.3664 58.9976 14.3891 58.4136C10.4455 57.8346 7.66045 56.6991 5.48398 54.5176L5.48317 54.5168C3.30102 52.3347 2.16542 49.5463 1.58641 45.6014C1.00244 41.6227 1 36.5942 1 29.9946C1 23.3949 1.00244 18.3664 1.5864 14.3891C2.16541 10.4455 3.30093 7.66045 5.48237 5.48398Z" stroke="white" stroke-width="2"/>
<path d="M28.7069 49.2804C26.5517 47.6371 24.9623 45.1856 24.4504 42.33H17.5V12.2922C21.2446 14.1511 23.9116 18.2728 24.2349 22.5293L25.2856 30.9614L24.7737 30.8806C23.6422 30.8806 22.6724 31.9312 22.6724 32.9819C22.6724 33.9517 23.4267 34.7868 24.3966 35.0024L25.6627 35.2987C27.764 31.3386 28.9494 27.4593 28.9494 23.6338C28.9494 20.1856 28.4914 16.7642 28.4375 13.2621C28.4375 11.6996 29.0302 10.2718 30 9.16724C30.9698 10.2987 31.5625 11.6996 31.5625 13.2621C31.5625 16.7642 31.0506 20.2125 31.0506 23.6338C31.0506 27.4323 32.236 31.3386 34.3373 35.2987L35.6035 35.0024C36.5733 34.7868 37.3276 33.9517 37.3276 32.9819C37.3276 31.9312 36.3578 30.8806 35.2263 30.8806L34.7144 30.9614L35.7651 22.5293C36.2769 18.2728 38.7554 14.1511 42.5 12.2922V42.33H35.5496C35.0377 45.1586 33.5291 47.7179 31.2931 49.2804C30.7813 49.6575 30.3233 50.1155 30.0269 50.7082C29.6767 50.0886 29.2188 49.6575 28.7069 49.2804ZM20.7866 31.9582C21.083 30.8267 21.9181 29.8569 22.9418 29.2642L22.1067 22.3138C21.8103 20.1586 20.9213 18.219 19.5744 16.6295V31.9312H20.7866V31.9582ZM24.3157 40.2287C24.3157 39.178 24.4774 38.2082 24.6929 37.2384L23.7231 37.0228C22.2953 36.5649 21.1907 35.4603 20.8136 34.0325H19.6282V40.2287H24.3157ZM28.9224 40.2287C28.9224 38.9625 27.9526 37.831 26.6864 37.6963C26.4709 38.5045 26.3093 39.3397 26.3093 40.2287H28.9224ZM28.9224 42.33H26.6056C26.9828 43.9733 27.7909 45.455 28.9224 46.7481V42.33ZM32.2091 35.8375C31.32 34.1942 30.4849 32.47 29.9731 30.692C29.4612 32.497 28.6261 34.1942 27.7371 35.8375C28.6261 36.053 29.3804 36.6457 29.9731 37.3192C30.5657 36.6457 31.32 36.053 32.2091 35.8375ZM33.6369 40.2287C33.6369 39.3397 33.4752 38.5045 33.2597 37.6963C31.9935 37.858 31.0237 38.9625 31.0237 40.2287H33.6369ZM33.3405 42.33H31.0237V46.7481C32.1552 45.455 32.9634 43.9733 33.3405 42.33ZM40.3718 40.2287V34.0325H39.1864C38.8093 35.4603 37.7047 36.5649 36.2769 37.0228L35.3071 37.2384C35.5226 38.2082 35.6843 39.178 35.6843 40.2287H40.3718ZM40.3718 31.9582V16.6565C39.0248 18.219 38.055 20.1586 37.8394 22.3407L37.0043 29.2912C38.055 29.8838 38.8631 30.8537 39.1595 31.9851H40.3718V31.9582Z" fill="white"/>
</svg>
