<svg width="64" height="64" viewBox="0 0 64 64" fill="none" xmlns="http://www.w3.org/2000/svg">
<g id="Group">
<g id="Group_2">
<g id="Clip path group">
<mask id="mask0_806_76" style="mask-type:luminance" maskUnits="userSpaceOnUse" x="11" y="11" width="42" height="42">
<g id="SVGID_4_">
<path id="Vector" d="M31.9998 52.8619C43.4971 52.8619 52.8175 43.5415 52.8175 32.0442C52.8175 20.547 43.4971 11.2266 31.9998 11.2266C20.5025 11.2266 11.1821 20.547 11.1821 32.0442C11.1821 43.5415 20.5025 52.8619 31.9998 52.8619Z" fill="white"/>
</g>
</mask>
<g mask="url(#mask0_806_76)">
<g id="Group_3">
<path id="Vector_2" d="M29.2595 52.9061C30.1876 53.0387 31.1158 53.0829 31.9998 53.0829C32.928 53.0829 33.8119 53.0387 34.7401 52.9061V50.873V30.8509C34.7401 30.6741 34.8727 30.4973 35.0495 30.4973C41.2374 29.3923 46.276 24.9724 48.2208 18.9614C46.8506 17.2818 45.2595 15.8674 43.4915 14.6741C43.0495 19.3592 39.7788 23.3371 35.2263 24.663C35.1821 24.663 35.1379 24.663 35.1379 24.663C35.0495 24.663 34.9611 24.6188 34.9169 24.5746C34.8285 24.4862 34.7843 24.3978 34.7843 24.2652V21.7901V18.7846C34.7843 17.2818 33.5467 16.0442 32.044 16.0442C30.5412 16.0442 29.3037 17.2818 29.3037 18.7846V21.7901V24.2652C29.3037 24.3978 29.2595 24.4862 29.1711 24.5746C29.1269 24.6188 29.0385 24.663 28.9501 24.663C28.9059 24.663 28.8617 24.663 28.8617 24.663C24.3092 23.3371 21.0385 19.3592 20.5965 14.6741C18.8285 15.8674 17.2374 17.2818 15.8672 18.9614C17.8119 24.9724 22.8506 29.3923 29.0385 30.4973C29.2153 30.5415 29.3479 30.6741 29.3479 30.8509V50.873V52.9061H29.2595Z" fill="#FCC133"/>
</g>
</g>
</g>
</g>
<g id="Group_4">
<path id="Vector_3" d="M31.9997 53.5248C20.1544 53.5248 10.519 43.8894 10.519 32.0441C10.519 20.1988 20.1544 10.5635 31.9997 10.5635C43.845 10.5635 53.4804 20.1988 53.4804 32.0441C53.4804 43.8894 43.845 53.5248 31.9997 53.5248ZM31.9997 11.8894C20.9058 11.8894 11.845 20.9502 11.845 32.0441C11.845 43.1381 20.9058 52.1988 31.9997 52.1988C43.0936 52.1988 52.1544 43.1381 52.1544 32.0441C52.1544 20.9502 43.0936 11.8894 31.9997 11.8894Z" fill="white"/>
</g>
<g id="Group_5">
<path id="Vector_4" d="M32 64C14.3646 64 0 49.6354 0 32C0 14.3646 14.3646 0 32 0C49.6354 0 64 14.3646 64 32C63.9558 49.6796 49.6354 64 32 64ZM32 1.37017C15.116 1.37017 1.32597 15.116 1.32597 32.0442C1.32597 48.9282 15.0718 62.7182 32 62.7182C48.884 62.7182 62.674 48.9724 62.674 32.0442C62.6298 15.116 48.884 1.37017 32 1.37017Z" fill="white"/>
</g>
<g id="Group_6">
<path id="Vector_5" d="M8.61863 24.4418L5.7457 22.6739C5.65731 22.6297 5.61311 22.5413 5.7015 22.4087L6.54128 20.3313C6.58548 20.2429 6.67388 20.1987 6.76228 20.2429L9.8562 21.4805L9.9446 21.2153C9.9888 21.1269 10.0772 21.0827 10.1656 21.1269L11.359 21.6131C11.4474 21.6573 11.4916 21.7457 11.4474 21.8341L11.2264 22.4087C11.1822 22.4971 11.0938 22.5413 11.0054 22.4971L10.475 22.2761L9.67941 24.265L10.2098 24.486C10.2982 24.5302 10.3424 24.6186 10.2982 24.707L10.0772 25.2816C10.033 25.37 9.9446 25.4142 9.8562 25.37L8.66283 24.8838C8.57443 24.8396 8.53023 24.7512 8.57443 24.6628L8.61863 24.4418ZM6.67388 22.1877L8.97222 23.602L9.45841 22.3645L6.98327 21.3479L6.67388 22.1877Z" fill="white"/>
<path id="Vector_6" d="M10.873 19.5359L11.9338 17.8563C11.978 17.7679 12.0664 17.7679 12.1548 17.8121L12.5968 18.0773C12.6852 18.1215 12.6852 18.2099 12.641 18.2983L11.1824 20.6409C11.1382 20.7293 11.0498 20.7293 10.9614 20.6851L7.5581 18.5635C7.4697 18.5193 7.4697 18.4309 7.51389 18.3425L8.92826 16.0442C8.97246 15.9558 9.06086 15.9558 9.14926 16L9.59124 16.2652C9.67964 16.3094 9.67964 16.3978 9.63544 16.4862L8.61887 18.1215L9.37025 18.5635L10.1216 17.3259C10.1658 17.2375 10.2542 17.2376 10.3426 17.2818L10.7846 17.5469C10.873 17.5911 10.873 17.6795 10.8288 17.7679L10.0774 19.0055L10.873 19.5359Z" fill="white"/>
<path id="Vector_7" d="M12.8176 16.0441L13.6574 16.7955C13.7458 16.8397 13.7458 16.9281 13.6574 17.0165L13.2596 17.5027C13.2154 17.5911 13.127 17.5911 13.0386 17.5027L10.0331 14.8507C9.9447 14.8065 9.9447 14.7181 10.0331 14.6297L11.4033 13.0386C11.8452 12.5524 12.2872 12.5082 12.7734 12.9502L13.6132 13.7016C14.0994 14.1435 14.1436 14.5855 13.7016 15.0717L12.8176 16.0441ZM11.1381 14.5855L12.1988 15.5137L12.906 14.7181C13.0386 14.5855 13.0386 14.4087 12.8618 14.2761L12.2872 13.7458C12.1546 13.6132 11.9778 13.6132 11.8452 13.7899L11.1381 14.5855Z" fill="white"/>
<path id="Vector_8" d="M16.3094 10.8286L16.6188 10.6076L16.2652 9.01648C16.221 8.92808 16.2652 8.83969 16.3536 8.75129L16.884 8.35349C16.9282 8.3093 17.0166 8.3093 17.0608 8.3977L17.5028 10.4308L19.5802 11.5358C19.6686 11.58 19.6686 11.6684 19.5802 11.7126L19.0498 12.1104C18.9614 12.1988 18.8288 12.1988 18.7404 12.1546L17.105 11.2706L16.7956 11.5358L17.8122 12.906C17.8564 12.9944 17.8564 13.0828 17.768 13.127L17.2818 13.5248C17.1934 13.569 17.105 13.569 17.0608 13.4806L16.0442 12.1104L15.7349 12.3756L16.1768 14.1878C16.221 14.2762 16.1768 14.3645 16.0884 14.4529L15.5581 14.8507C15.5139 14.8949 15.4255 14.8949 15.3813 14.8065L14.8509 12.5524L12.9945 11.58C12.9061 11.5358 12.9061 11.4474 12.9945 11.4032L13.5249 11.0054C13.6133 10.917 13.7017 10.9612 13.7901 11.0054L15.2487 11.7568L15.5581 11.5358L14.6741 10.3424C14.6299 10.254 14.6299 10.1656 14.7183 10.1214L15.2045 9.72366C15.2929 9.67946 15.3813 9.67947 15.4255 9.76786L16.3094 10.8286Z" fill="white"/>
<path id="Vector_9" d="M20.4644 10.2983L20.597 11.0497C20.597 11.1381 20.597 11.2265 20.4644 11.2707L19.8456 11.5801C19.7572 11.6243 19.713 11.5801 19.713 11.4917L19.0942 7.29282C19.0942 7.20442 19.0942 7.11602 19.2268 7.07182L19.8898 6.76243C20.0224 6.71823 20.0666 6.71823 20.155 6.80663L23.1163 9.81215C23.2047 9.90055 23.1605 9.94475 23.1163 9.98895L22.4976 10.2983C22.365 10.3425 22.3208 10.3425 22.2324 10.2541L21.702 9.67956L20.4644 10.2983ZM21.1274 9.06077L20.155 8L20.1108 8.0442L20.376 9.45856L21.1274 9.06077Z" fill="white"/>
<path id="Vector_10" d="M22.5857 5.74561C22.5415 5.65721 22.5857 5.56882 22.6741 5.56882L24.5304 5.03842C25.1492 4.86163 25.547 5.08262 25.7238 5.70141L25.8564 6.0992C25.989 6.58539 25.6354 6.80638 25.6354 6.80638V6.85058C25.6354 6.85058 26.2542 6.76218 26.431 7.38097L26.6078 7.95555C26.7846 8.57434 26.5636 8.97213 25.9448 9.14892L23.9117 9.76771C23.8233 9.81191 23.7349 9.76771 23.7349 9.67931L22.5857 5.74561ZM23.6465 6.1434L23.8675 6.93898L24.7072 6.67379C24.884 6.62959 24.9724 6.45279 24.9282 6.27599L24.884 6.055C24.8398 5.8782 24.663 5.78981 24.4862 5.83401L23.6465 6.1434ZM25.4586 8.39754C25.6354 8.35334 25.7238 8.17655 25.6796 7.99976L25.547 7.60196C25.5028 7.42517 25.326 7.33677 25.1492 7.38097L24.1327 7.69036L24.4421 8.66274L25.4586 8.39754Z" fill="white"/>
<path id="Vector_11" d="M28.376 6.01093L29.8345 5.83414L29.6577 4.24298C29.6577 4.15458 29.7019 4.06618 29.7903 4.06618L30.4091 3.97778C30.4975 3.97778 30.5859 4.02198 30.5859 4.11038L31.0279 8.08828C31.0279 8.17668 30.9837 8.26507 30.8953 8.26507L30.2765 8.35347C30.1881 8.35347 30.0997 8.30928 30.0997 8.22088L29.9229 6.67392L28.4644 6.85071L28.6412 8.39767C28.6412 8.48607 28.597 8.57447 28.5086 8.57447L27.8898 8.66287C27.8014 8.66287 27.713 8.61867 27.713 8.53027L27.271 4.55237C27.271 4.46397 27.3152 4.37557 27.4036 4.37557L28.0224 4.28717C28.1108 4.28717 28.1992 4.33137 28.1992 4.41977L28.376 6.01093Z" fill="white"/>
<path id="Vector_12" d="M32.8843 7.46948L32.6191 8.17667C32.5749 8.26506 32.5307 8.30926 32.3981 8.30926L31.7351 8.26506C31.6467 8.26506 31.6025 8.17667 31.6467 8.08827L33.1937 4.15456C33.2379 4.06617 33.2821 4.02197 33.4147 4.02197L34.1661 4.06617C34.2987 4.06617 34.3429 4.15457 34.3871 4.24297L35.4478 8.35346C35.492 8.44186 35.4036 8.48606 35.3594 8.48606L34.6965 8.44186C34.5639 8.44186 34.5197 8.35346 34.4755 8.26506L34.2987 7.51368L32.8843 7.46948ZM34.0777 6.7181L33.7683 5.34794H33.7241L33.2379 6.67391L34.0777 6.7181Z" fill="white"/>
<path id="Vector_13" d="M41.5026 7.02761C41.4584 7.11601 41.4142 7.16021 41.3258 7.11601L40.7512 6.93921C40.6628 6.89502 40.6186 6.85082 40.6628 6.76242L40.707 6.54143C40.7512 6.36463 40.6628 6.18783 40.486 6.14363L39.6463 5.87844C39.4695 5.83424 39.2927 5.92264 39.2485 6.09944L38.6297 8.17678C38.5855 8.35358 38.6739 8.53037 38.8507 8.57457L39.6905 8.83977C39.8673 8.88397 40.044 8.79557 40.0882 8.61877L40.1324 8.39778C40.1766 8.30938 40.2208 8.26518 40.3092 8.30938L40.8838 8.48618C40.9722 8.53037 41.0164 8.57458 40.9722 8.66298L40.8396 9.06076C40.6628 9.67955 40.265 9.90054 39.6463 9.67954L38.2761 9.23756C37.6573 9.06076 37.4363 8.66297 37.6573 8.04419L38.4087 5.61325C38.5855 4.99446 38.9833 4.77347 39.6021 4.99447L40.9722 5.43645C41.591 5.61325 41.812 6.01104 41.591 6.62982L41.5026 7.02761Z" fill="white"/>
<path id="Vector_14" d="M42.0774 9.19337L43.8895 6.80663C43.9337 6.71823 44.0221 6.71823 44.1547 6.76243L46.1437 7.77901C46.2321 7.82321 46.2321 7.9116 46.1879 8L44.3315 11.5801C44.2873 11.6685 44.1989 11.6685 44.1105 11.6243L43.5801 11.3591C43.4917 11.3149 43.4917 11.2265 43.5359 11.1381L45.0829 8.1768L44.3315 7.77901L42.7845 9.81215C42.3426 10.3867 41.9448 10.5193 41.3702 10.2099L41.1934 10.1215C41.105 10.0773 41.105 9.98895 41.105 9.90055L41.326 9.41437C41.3702 9.32597 41.4586 9.32597 41.547 9.37016C41.768 9.54696 41.8564 9.50276 42.0774 9.19337Z" fill="white"/>
<path id="Vector_15" d="M47.3368 8.70705C47.381 8.61866 47.4252 8.57446 47.5136 8.61866L48.044 9.01645C48.1324 9.10484 48.1324 9.19324 48.1324 9.28164L47.5578 11.2706L47.602 11.3148L49.2816 10.1656C49.37 10.1214 49.4584 10.0772 49.5468 10.1656L50.0772 10.5634C50.1214 10.6076 50.1656 10.696 50.0772 10.7402L47.16 12.5966C46.497 13.0385 46.0993 13.0827 45.5247 12.6408L45.3921 12.5082C45.3037 12.464 45.3037 12.3756 45.3479 12.2872L45.6573 11.8452C45.7015 11.7568 45.7899 11.7568 45.8783 11.801L46.0109 11.9336C46.1877 12.0662 46.2761 12.0662 46.497 11.8452L47.3368 8.70705Z" fill="white"/>
<path id="Vector_16" d="M51.8009 14.6298L52.0661 14.895L53.613 14.4088C53.7014 14.3646 53.7898 14.3646 53.8782 14.453L54.3202 14.9392C54.3644 14.9834 54.3644 15.0718 54.276 15.116L52.2871 15.7348L51.3589 17.9005C51.3147 17.9889 51.2263 17.9889 51.1821 17.9447L50.7401 17.4585C50.6517 17.3701 50.6517 17.2817 50.6959 17.1933L51.4473 15.5138L51.1821 15.2044L49.9445 16.3536C49.8561 16.3978 49.7677 16.3978 49.7235 16.3536L49.3257 15.9116C49.2815 15.8232 49.2815 15.7348 49.3257 15.6906L50.5633 14.5414L50.2981 14.232L48.5302 14.8508C48.4418 14.895 48.3534 14.8508 48.265 14.7624L47.823 14.2762C47.7788 14.232 47.7788 14.1436 47.8672 14.0994L50.0771 13.3922L50.8727 11.4917C50.9169 11.4033 51.0053 11.4033 51.0495 11.4475L51.4915 11.9337C51.5799 12.0221 51.5799 12.1105 51.5357 12.1989L50.9169 13.7016L51.1821 13.9668L52.2871 12.9503C52.3755 12.9061 52.4639 12.9061 52.5081 12.9503L52.9058 13.3922C52.95 13.4806 52.95 13.569 52.9058 13.6132L51.8009 14.6298Z" fill="white"/>
<path id="Vector_17" d="M55.0276 19.0938C55.3812 19.6684 55.2486 20.0662 54.7182 20.4198L54.011 20.8176C53.4364 21.1712 53.0386 21.0386 52.685 20.5082L51.6242 18.696C51.58 18.6076 51.58 18.5192 51.6684 18.475L55.116 16.3977C55.2044 16.3535 55.2928 16.3535 55.337 16.4419L56.7071 18.7402C56.7513 18.8286 56.7513 18.917 56.6629 18.9612L56.2209 19.2264C56.1325 19.2706 56.0441 19.2706 55.9999 19.1822L55.0276 17.5469L54.3646 17.9446L55.0276 19.0938ZM53.2596 19.8452C53.348 20.022 53.5248 20.0662 53.7016 19.9336L54.0552 19.7126C54.232 19.6242 54.2762 19.4474 54.1436 19.2706L53.6132 18.3866L52.7292 18.917L53.2596 19.8452Z" fill="white"/>
<path id="Vector_18" d="M54.6741 22.5412L53.9227 22.5854C53.8343 22.5854 53.7459 22.5412 53.7017 22.4528L53.4365 21.8341C53.3923 21.7457 53.4365 21.7015 53.5691 21.7015L57.8122 21.4805C57.9006 21.4805 57.989 21.5247 58.0332 21.6131L58.2984 22.3202C58.3426 22.4528 58.2984 22.497 58.2542 22.5854L54.9835 25.2374C54.8951 25.2816 54.8509 25.2816 54.8067 25.1932L54.5415 24.5744C54.4973 24.4418 54.5415 24.3976 54.5857 24.3092L55.2045 23.823L54.6741 22.5412ZM55.8674 23.2926L56.9724 22.4086L56.9282 22.3644L55.5138 22.497L55.8674 23.2926Z" fill="white"/>
</g>
<g id="Group_7">
<path id="Vector_19" d="M16.398 52.3758C16.0444 52.8178 15.6024 52.5084 15.6024 52.5084L15.5582 52.5526C15.5582 52.5526 15.956 52.9504 15.4698 53.4808L15.072 53.9227C14.6301 54.4089 14.1881 54.4531 13.7019 54.0111L12.6411 53.083C12.1549 52.641 12.1107 52.199 12.5527 51.7128L12.8179 51.4034C12.8621 51.315 12.9505 51.315 13.0389 51.4034L13.5251 51.8012C13.6135 51.8454 13.6135 51.9338 13.5251 52.0222L13.3925 52.199C13.2599 52.3316 13.3041 52.5084 13.4367 52.641L14.0555 53.1714C14.1881 53.304 14.3649 53.2598 14.4975 53.1272L14.7627 52.8178C14.8953 52.6852 14.8511 52.5084 14.7185 52.3758L14.1881 51.9338C14.0997 51.8896 14.0997 51.8012 14.1881 51.7128L14.5417 51.315C14.5859 51.2266 14.6743 51.2266 14.7627 51.315L15.2488 51.7128C15.3814 51.8454 15.5582 51.8012 15.6908 51.6686L15.9118 51.4476C16.0444 51.315 16.0002 51.1382 15.8676 51.0056L15.3372 50.5194C15.2046 50.3868 15.0279 50.431 14.8953 50.5636L14.7627 50.7404C14.7185 50.8288 14.6301 50.8288 14.5417 50.7404L14.0555 50.3426C13.9671 50.2984 13.9671 50.21 14.0555 50.1216L14.3207 49.8123C14.7627 49.3261 15.2046 49.2819 15.6908 49.7239L16.6632 50.5636C17.1494 51.0056 17.1936 51.4476 16.7516 51.9338L16.398 52.3758Z" fill="white"/>
<path id="Vector_20" d="M16.9284 55.1161L16.3538 55.6465C16.2654 55.6907 16.177 55.7349 16.0886 55.6465L15.5141 55.2929C15.4257 55.2487 15.4257 55.1603 15.5141 55.1161L18.7406 52.3757C18.829 52.3315 18.9174 52.2873 19.0058 52.3757L19.6245 52.7735C19.7129 52.8177 19.7571 52.9061 19.7129 53.0387L18.6964 57.1492C18.6522 57.2376 18.608 57.2818 18.5196 57.2376L17.945 56.884C17.8566 56.8398 17.8124 56.7514 17.8566 56.6188L18.0776 55.8675L16.9284 55.1161ZM18.2986 55.0277L18.6522 53.6575L18.608 53.6133L17.5472 54.5415L18.2986 55.0277Z" fill="white"/>
<path id="Vector_21" d="M22.9833 56.221L20.8618 58.0773C20.7734 58.1657 20.7292 58.1657 20.5966 58.1215L19.8894 57.8121C19.801 57.768 19.7568 57.6796 19.801 57.5912L21.3038 53.8785C21.348 53.7901 21.4364 53.7459 21.5248 53.7901L22.0994 54.011C22.1878 54.0552 22.232 54.1436 22.1878 54.232L21.2154 56.5746L21.2596 56.6188L23.3811 54.7624C23.4695 54.674 23.5137 54.674 23.6463 54.7182L24.3535 55.0276C24.4419 55.0718 24.4861 55.1602 24.4419 55.2486L22.9392 58.9613C22.895 59.0497 22.8066 59.0939 22.7182 59.0497L22.1436 58.8287C22.0552 58.7845 22.011 58.6961 22.0552 58.6077L23.0276 56.2652L22.9833 56.221ZM23.7789 53.1713C23.8231 53.0829 23.9115 53.0387 23.9999 53.0829L24.3535 53.2155C24.4419 53.2597 24.4861 53.3481 24.4419 53.4365L24.3535 53.6575C24.1767 54.0994 23.8673 54.232 23.4253 54.0553L22.895 53.8343C22.453 53.6575 22.3204 53.3481 22.4972 52.9061L22.5856 52.6851C22.6298 52.5967 22.7182 52.5525 22.8066 52.5967L23.1601 52.7293C23.2485 52.7735 23.2927 52.8619 23.2485 52.9503L23.2043 53.0387C23.1601 53.1713 23.2043 53.2155 23.2927 53.2597L23.5137 53.3481C23.6463 53.3923 23.6905 53.3481 23.7347 53.2597L23.7789 53.1713Z" fill="white"/>
<path id="Vector_22" d="M25.9891 57.2377L27.4034 57.5471L27.7128 55.9559C27.7128 55.8675 27.8012 55.8233 27.8896 55.8233L28.5084 55.9559C28.5968 55.9559 28.641 56.0443 28.641 56.1327L27.8454 60.0664C27.8454 60.1548 27.757 60.199 27.6686 60.199L27.0498 60.0664C26.9614 60.0664 26.9172 59.978 26.9172 59.8896L27.2266 58.3427L25.8123 58.0333L25.5029 59.5802C25.5029 59.6686 25.4145 59.7129 25.3261 59.7129L24.7073 59.5802C24.6189 59.5802 24.5747 59.4919 24.5747 59.4035L25.3703 55.4698C25.3703 55.3814 25.4587 55.3372 25.5471 55.3372L26.1659 55.4698C26.2543 55.4698 26.2985 55.5582 26.2985 55.6465L25.9891 57.2377Z" fill="white"/>
<path id="Vector_23" d="M29.525 57.061C29.525 56.398 29.8785 56.1328 30.4973 56.1328L32.6189 56.177C32.7073 56.177 32.7515 56.2654 32.7515 56.3538L32.6189 60.3759C32.6189 60.4643 32.5305 60.5085 32.4421 60.5085H31.8233C31.7349 60.5085 31.6907 60.4201 31.6907 60.3317L31.7349 59.1383L30.8509 59.0941L30.2763 60.2875C30.2321 60.3759 30.1879 60.4201 30.0553 60.4201H29.3924C29.304 60.4201 29.2598 60.3759 29.304 60.2433L29.9669 59.0057C29.9669 59.0057 29.4366 58.9173 29.4808 58.0776L29.525 57.061ZM30.7625 56.9726C30.5857 56.9726 30.4531 57.1052 30.4531 57.282V57.945C30.4531 58.1218 30.5857 58.2544 30.7625 58.2544L31.8233 58.2986L31.8675 57.0168L30.7625 56.9726Z" fill="white"/>
<path id="Vector_24" d="M35.9778 60.0663C35.9778 60.1547 35.9336 60.2431 35.8452 60.2431L35.2265 60.3315C35.1381 60.3315 35.0497 60.2873 35.0497 60.1989L34.6519 56.884L33.6795 57.0166C33.5911 57.0166 33.5027 56.9724 33.5027 56.884L33.4585 56.3536C33.4585 56.2652 33.5027 56.1768 33.5911 56.1768L36.464 55.8232C36.5524 55.8232 36.6408 55.8674 36.6408 55.9558L36.685 56.4862C36.685 56.5746 36.6408 56.663 36.5524 56.663L35.58 56.7956L35.9778 60.0663Z" fill="white"/>
<path id="Vector_25" d="M41.3701 58.0332C41.5469 58.652 41.3259 59.0498 40.7071 59.2266L39.2485 59.6686C38.6298 59.8454 38.232 59.6244 38.0552 59.0056L37.348 56.5747C37.1712 55.9559 37.3922 55.5581 38.011 55.3813L39.4695 54.9393C40.0883 54.7625 40.4861 54.9835 40.6629 55.6023L41.3701 58.0332ZM39.8231 56.0443C39.7789 55.8675 39.6021 55.7791 39.4253 55.8233L38.4972 56.0885C38.3204 56.1327 38.232 56.3095 38.2762 56.4863L38.895 58.5636C38.9392 58.7404 39.116 58.8288 39.2927 58.7846L40.2209 58.5194C40.3977 58.4752 40.4861 58.2984 40.4419 58.1216L39.8231 56.0443Z" fill="white"/>
<path id="Vector_26" d="M44.7734 54.0995C44.8176 54.1879 44.7734 54.2763 44.685 54.3205L44.1104 54.5857C44.022 54.6299 43.9336 54.5857 43.8894 54.4973L43.801 54.3205C43.7126 54.1437 43.5358 54.0995 43.4032 54.1879L42.6076 54.5857C42.4309 54.6741 42.3867 54.8509 42.4751 54.9835L43.4474 56.9283C43.5358 57.1051 43.7126 57.1493 43.8452 57.0609L44.6408 56.6631C44.8176 56.5747 44.8618 56.3979 44.7734 56.2653L44.685 56.0885C44.6408 56.0001 44.685 55.9117 44.7734 55.8675L45.348 55.6023C45.4364 55.5581 45.5248 55.6023 45.569 55.6907L45.7458 56.0443C46.0552 56.6189 45.8784 57.0609 45.3038 57.3261L43.9778 57.989C43.4032 58.2984 42.9612 58.1216 42.696 57.5471L41.5911 55.2929C41.2817 54.7183 41.4585 54.2763 42.0331 54.0111L43.359 53.3482C43.9336 53.0388 44.3756 53.2156 44.6408 53.7901L44.7734 54.0995Z" fill="white"/>
<path id="Vector_27" d="M48.663 54.8951C48.7071 54.9835 48.7071 55.0719 48.6187 55.1161L48.1326 55.4697C48.0442 55.5139 47.9558 55.5139 47.9116 55.4255L45.9668 52.6852L45.1712 53.2598C45.0828 53.304 44.9944 53.304 44.9502 53.2156L44.6408 52.7736C44.5966 52.6852 44.5967 52.5968 44.685 52.5526L47.0718 50.873C47.1602 50.8288 47.2486 50.8288 47.2928 50.9172L47.6022 51.3592C47.6464 51.4476 47.6464 51.536 47.558 51.5802L46.7624 52.1548L48.663 54.8951Z" fill="white"/>
<path id="Vector_28" d="M51.1381 52.9061C51.1823 52.9945 51.1823 53.0829 51.1381 53.1271L50.6961 53.5249C50.6077 53.5691 50.5193 53.5691 50.4751 53.5249L47.8232 50.5194C47.779 50.431 47.779 50.3426 47.8232 50.2984L48.2652 49.9006C48.3536 49.8564 48.442 49.8564 48.4862 49.9006L51.1381 52.9061Z" fill="white"/>
</g>
<g id="Group_8">
<g id="Group_9">
<path id="Vector_29" d="M6.58535 31.6022C6.14336 31.2044 5.92237 30.895 5.92237 30.895C5.87817 30.8508 5.83397 30.8508 5.78977 30.895C5.78977 30.895 5.65718 31.2486 5.39198 31.7789C5.17099 32.1325 5.21519 32.7071 5.65718 32.9723C5.96657 33.1491 6.23176 33.2817 6.23176 33.2817H6.27596H6.32016C6.32016 33.2817 6.49696 33.0607 6.76215 32.7955C7.07154 32.3977 6.93894 31.8673 6.58535 31.6022Z" fill="#FCC133"/>
<path id="Vector_30" d="M6.27628 33.9006C6.18788 33.6796 6.01108 33.3702 5.52489 33.1493C5.03871 32.9283 4.50832 32.7515 4.50832 32.7515H4.46412L4.41992 32.7957C4.41992 32.8399 4.55252 33.5912 4.64092 33.8122C4.72931 33.989 4.90611 34.5194 5.4807 34.652C5.92268 34.7404 6.18788 34.7404 6.32048 34.7404C6.32048 34.7404 6.40887 34.7404 6.40887 34.6962C6.40887 34.6078 6.32048 34.0774 6.27628 33.9006Z" fill="#FCC133"/>
<path id="Vector_31" d="M6.5412 35.7569C6.4528 35.5359 6.276 35.2265 5.74561 34.9613C5.21523 34.6961 4.64064 34.5193 4.64064 34.5193C4.59644 34.5193 4.59644 34.5193 4.59644 34.5193L4.55225 34.5635C4.55225 34.6077 4.68484 35.4033 4.77324 35.6685C4.86164 35.8894 5.08263 36.4198 5.70142 36.5524C6.14341 36.6408 6.497 36.6408 6.58539 36.6408C6.58539 36.6408 6.67379 36.6408 6.67379 36.5966C6.67379 36.5082 6.62959 35.9778 6.5412 35.7569Z" fill="#FCC133"/>
<path id="Vector_32" d="M7.82329 32.2209H7.77909C7.77909 32.2209 7.3371 32.5745 6.93931 32.9281C6.54152 33.2817 6.45312 33.6353 6.45312 33.8563C6.45312 34.0773 6.54152 34.6077 6.58572 34.6519C6.62992 34.6961 6.67412 34.6961 6.67412 34.6961C6.76252 34.6961 7.07191 34.5635 7.4255 34.3425C7.95589 34.0773 7.95589 33.5027 8.00009 33.2817C8.00009 33.0165 7.91169 32.2651 7.91169 32.2209C7.86749 32.2651 7.82329 32.2209 7.82329 32.2209Z" fill="#FCC133"/>
<path id="Vector_33" d="M8.26497 33.9448H8.22077C8.22077 33.9448 7.73458 34.2984 7.29259 34.6962C6.8948 35.094 6.76221 35.4476 6.76221 35.7128C6.76221 35.978 6.85061 36.5084 6.89481 36.5968C6.939 36.641 6.9832 36.641 6.9832 36.641C7.1158 36.641 7.38099 36.5084 7.82298 36.2874C8.39757 35.978 8.39757 35.4034 8.44177 35.1824C8.44177 34.9172 8.35337 34.0774 8.30917 34.0332C8.30917 33.989 8.26497 33.9448 8.26497 33.9448Z" fill="#FCC133"/>
</g>
<g id="Group_10">
<path id="Vector_34" d="M8.61882 41.9891C8.35363 42.5195 8.26523 42.9172 8.26523 42.9172C8.26523 42.9614 8.17683 42.9614 8.13263 42.9614C8.13263 42.9614 7.86744 42.6521 7.42545 42.2985C7.07186 42.0333 6.93926 41.5029 7.20446 41.1051C7.42545 40.8399 7.60225 40.6189 7.60225 40.6189C7.60225 40.6189 7.64645 40.6189 7.64645 40.5747H7.69064C7.69064 40.5747 7.95584 40.7073 8.26523 40.8399C8.70722 41.0609 8.79562 41.6355 8.61882 41.9891Z" fill="#FCC133"/>
<path id="Vector_35" d="M7.42536 40.0002C7.42536 40.2212 7.38116 40.5748 7.02757 40.9725C6.62978 41.3703 6.23199 41.7239 6.23199 41.7239H6.18779C6.14359 41.7239 6.14359 41.6797 6.14359 41.6797C6.14359 41.6355 5.9668 40.8841 5.9668 40.6632C5.9668 40.4422 5.9668 39.9118 6.45299 39.6024C6.80658 39.3814 7.07177 39.2488 7.20437 39.2046C7.20437 39.2046 7.29276 39.2046 7.29276 39.2488C7.29276 39.293 7.42536 39.7792 7.42536 40.0002Z" fill="#FCC133"/>
<path id="Vector_36" d="M6.98348 38.1879C6.98348 38.4089 6.93929 38.8067 6.5415 39.2045C6.14371 39.6465 5.70172 40.0443 5.70172 40.0443H5.65752C5.61332 40.0443 5.61332 40.0001 5.61332 40.0001C5.61332 39.9559 5.43652 39.1603 5.43652 38.8951C5.43652 38.6741 5.43652 38.0553 5.96691 37.7459C6.3647 37.4807 6.62989 37.3481 6.76249 37.3481C6.76249 37.3481 6.85089 37.3481 6.85089 37.3923C6.85089 37.3923 6.93929 37.9227 6.98348 38.1879Z" fill="#FCC133"/>
<path id="Vector_37" d="M9.50263 40.9726H9.45843C9.45843 40.9726 8.92804 40.84 8.39766 40.619C7.91147 40.4422 7.69048 40.1328 7.60208 39.956C7.51368 39.735 7.38108 39.2488 7.42528 39.1604C7.42528 39.1162 7.46948 39.1162 7.51368 39.072C7.60208 39.0278 7.91147 39.0278 8.35346 39.1162C8.92804 39.2046 9.14904 39.6908 9.23744 39.8676C9.32583 40.0886 9.54683 40.84 9.54683 40.8842C9.50263 40.9284 9.50263 40.9284 9.50263 40.9726Z" fill="#FCC133"/>
<path id="Vector_38" d="M9.23754 39.2045C9.23754 39.2045 9.19334 39.2487 9.19334 39.2045C9.19334 39.2045 8.61876 39.0719 8.04417 38.8509C7.51379 38.6299 7.29279 38.3647 7.20439 38.0995C7.116 37.8785 6.9834 37.3482 6.9834 37.2598C6.9834 37.2156 7.0276 37.2156 7.07179 37.1714C7.16019 37.1272 7.51378 37.1272 7.95577 37.2156C8.57456 37.304 8.83975 37.8343 8.92815 38.0111C9.06075 38.2763 9.23754 39.0719 9.23754 39.1161C9.28174 39.1603 9.28174 39.2045 9.23754 39.2045Z" fill="#FCC133"/>
</g>
</g>
<g id="Group_11">
<g id="Group_12">
<path id="Vector_39" d="M57.3703 31.6022C57.8122 31.2044 58.0332 30.895 58.0332 30.895C58.0774 30.8508 58.1216 30.8508 58.1658 30.895C58.1658 30.895 58.2984 31.2486 58.5636 31.7789C58.7846 32.1325 58.7404 32.7071 58.2984 32.9723C57.989 33.1491 57.7238 33.2817 57.7238 33.2817H57.6796H57.6354C57.6354 33.2817 57.4587 33.0607 57.1935 32.7955C56.9283 32.3977 57.0609 31.8673 57.3703 31.6022Z" fill="#FCC133"/>
<path id="Vector_40" d="M57.7239 33.9006C57.8123 33.6796 57.9891 33.3702 58.4753 33.1493C58.9615 32.9283 59.4919 32.7515 59.4919 32.7515H59.5361L59.5803 32.7957C59.5803 32.8399 59.4477 33.5912 59.3593 33.8122C59.2709 33.989 59.0941 34.5194 58.5195 34.652C58.0775 34.7404 57.8123 34.7404 57.6797 34.7404C57.6797 34.7404 57.5913 34.7404 57.5913 34.6962C57.5471 34.6078 57.6355 34.0774 57.7239 33.9006Z" fill="#FCC133"/>
<path id="Vector_41" d="M57.4588 35.7569C57.5472 35.5359 57.724 35.2265 58.2544 34.9613C58.7848 34.6961 59.3594 34.5193 59.3594 34.5193C59.4036 34.5193 59.4036 34.5193 59.4036 34.5193L59.4478 34.5635C59.4478 34.6077 59.3152 35.4033 59.2268 35.6685C59.1384 35.8894 58.9174 36.4198 58.2986 36.5524C57.8566 36.6408 57.503 36.6408 57.4146 36.6408C57.4146 36.6408 57.3262 36.6408 57.3262 36.5966C57.282 36.5082 57.3704 35.9778 57.4588 35.7569Z" fill="#FCC133"/>
<path id="Vector_42" d="M56.1768 32.2209H56.221C56.221 32.2209 56.663 32.5745 57.0608 32.9281C57.4586 33.2817 57.547 33.6353 57.547 33.8563C57.547 34.0773 57.4586 34.6077 57.4144 34.6519C57.3702 34.6961 57.326 34.6961 57.326 34.6961C57.2376 34.6961 56.9282 34.5635 56.5746 34.3425C56.0442 34.0773 56.0442 33.5027 56 33.2817C56 33.0165 56.0884 32.2651 56.0884 32.2209C56.1326 32.2651 56.1326 32.2209 56.1768 32.2209Z" fill="#FCC133"/>
<path id="Vector_43" d="M55.7349 33.9448H55.7791C55.7791 33.9448 56.2653 34.2984 56.7073 34.6962C57.1051 35.094 57.2377 35.4476 57.2377 35.7128C57.2377 35.978 57.1493 36.5084 57.1051 36.5968C57.0609 36.641 57.0167 36.641 57.0167 36.641C56.8841 36.641 56.6189 36.5084 56.1769 36.2874C55.6023 35.978 55.6023 35.4034 55.5581 35.1824C55.5581 34.9172 55.6465 34.0774 55.6907 34.0332C55.6907 33.989 55.6907 33.9448 55.7349 33.9448Z" fill="#FCC133"/>
</g>
<g id="Group_13">
<path id="Vector_44" d="M55.3813 41.9891C55.6465 42.5195 55.7349 42.9172 55.7349 42.9172C55.7349 42.9614 55.8233 42.9614 55.8675 42.9614C55.8675 42.9614 56.1326 42.6521 56.5746 42.2985C56.9282 42.0333 57.0608 41.5029 56.7956 41.1051C56.5746 40.8399 56.3978 40.6189 56.3978 40.6189C56.3978 40.6189 56.3536 40.6189 56.3536 40.5747H56.3094C56.3094 40.5747 56.0443 40.7073 55.7349 40.8399C55.2929 41.0609 55.2045 41.6355 55.3813 41.9891Z" fill="#FCC133"/>
<path id="Vector_45" d="M56.5747 40.0002C56.5747 40.2212 56.6189 40.5748 56.9725 40.9725C57.3703 41.3703 57.7681 41.7239 57.7681 41.7239H57.8123C57.8565 41.7239 57.8565 41.6797 57.8565 41.6797C57.8565 41.6355 58.0333 40.8841 58.0333 40.6632C58.0333 40.4422 58.0333 39.9118 57.5471 39.6024C57.1935 39.3814 56.9283 39.2488 56.7957 39.2046C56.7957 39.2046 56.7073 39.2046 56.7073 39.2488C56.7073 39.293 56.5747 39.7792 56.5747 40.0002Z" fill="#FCC133"/>
<path id="Vector_46" d="M57.0166 38.1879C57.0166 38.4089 57.0608 38.8067 57.4586 39.2045C57.8564 39.6465 58.2984 40.0443 58.2984 40.0443H58.3426C58.3868 40.0443 58.3868 40.0001 58.3868 40.0001C58.3868 39.9559 58.5636 39.1603 58.5636 38.8951C58.5636 38.6741 58.5636 38.0553 58.0332 37.7459C57.6354 37.4807 57.3702 37.3481 57.2376 37.3481C57.2376 37.3481 57.1492 37.3481 57.1492 37.3923C57.1492 37.3923 57.0166 37.9227 57.0166 38.1879Z" fill="#FCC133"/>
<path id="Vector_47" d="M54.4973 40.9726H54.5415C54.5415 40.9726 55.0719 40.84 55.6023 40.619C56.0885 40.4422 56.3095 40.1328 56.3979 39.956C56.4863 39.735 56.6189 39.2488 56.5747 39.1604C56.5747 39.1162 56.5305 39.1162 56.4863 39.072C56.3979 39.0278 56.0885 39.0278 55.6465 39.1162C55.0719 39.2046 54.8509 39.6908 54.7625 39.8676C54.6741 40.0886 54.4531 40.84 54.4531 40.8842C54.4531 40.9284 54.4973 40.9284 54.4973 40.9726Z" fill="#FCC133"/>
<path id="Vector_48" d="M54.7626 39.2045C54.7626 39.2045 54.8068 39.2487 54.8068 39.2045C54.8068 39.2045 55.3814 39.0719 55.956 38.8509C56.4864 38.6299 56.7074 38.3647 56.7958 38.0995C56.8842 37.8785 57.0168 37.3482 57.0168 37.2598C57.0168 37.2156 56.9726 37.2156 56.9284 37.1714C56.84 37.1272 56.4864 37.1272 56.0444 37.2156C55.4256 37.304 55.1604 37.8343 55.072 38.0111C54.9394 38.2763 54.7626 39.0719 54.7626 39.1161C54.7184 39.1603 54.7184 39.2045 54.7626 39.2045Z" fill="#FCC133"/>
</g>
</g>
</g>
</svg>
